# xmcd
#
# Track frame offsets: 
#        150
#        13902
#        28385
#        45333
#        60615
#        81484
#        98952
#        113787
#        129773
#        142163
#        155496
#        172765
#        197348
#        207909
#        223211
#        232823
#        251158
#        268723
#        286096
#        302515
#
# Disc length: 4277 seconds
#
# Revision: 1
# Processed by: cddbd v1.5.2PL0 Copyright (c) Steve Scherf et al.
# Submitted via: ExactAudioCopy v0.99pb4
#
DISCID=1a10b314
DTITLE=Claude Nougaro - Sa majeste le jazz cd2
DYEAR=2009
DGENRE=Jazz
TTITLE0=C'est Eddy
TTITLE1=Mater
TTITLE2=Soeur âme (Sister salvation)
TTITLE3=Dansez sur moi (Girl talk)
TTITLE4=Gloria
TTITLE5=Comme une piaf (Beauty and the beast)
TTITLE6=Autour de minuit (Round midnight)
TTITLE7=E pericoloso sporgersi
TTITLE8=Hymne (Con alma)
TTITLE9=Bilboquet
TTITLE10=Des goûts et des couleurs
TTITLE11=Ca fait mal (I got it bad and that ain't good)
TTITLE12=Le chat (The cat)
TTITLE13=Femme orchestre
TTITLE14=Bleu blanc blues
TTITLE15=Sa majesté le jazz
TTITLE16=Harlem (sur les motifs de 'fables of faubus')
TTITLE17=Prisonnier des nuages
TTITLE18=Facon Chaplin
TTITLE19=Avec les anges
EXTD=YEAR: 2009
EXTT0=
EXTT1=
EXTT2=
EXTT3=
EXTT4=
EXTT5=
EXTT6=
EXTT7=
EXTT8=
EXTT9=
EXTT10=
EXTT11=
EXTT12=
EXTT13=
EXTT14=
EXTT15=
EXTT16=
EXTT17=
EXTT18=
EXTT19=
PLAYORDER=
